<svg xmlns="http://www.w3.org/2000/svg" xmlns:xlink="http://www.w3.org/1999/xlink" width="1473" zoomAndPan="magnify" viewBox="0 0 1104.75 762.749994" height="1017" preserveAspectRatio="xMidYMid meet" version="1.0"><defs><g/><clipPath id="5e12039b6d"><rect x="0" width="860" y="0" height="421"/></clipPath><clipPath id="c3afab3e7c"><rect x="0" width="486" y="0" height="437"/></clipPath><clipPath id="330df47005"><rect x="0" width="627" y="0" height="553"/></clipPath></defs><g transform="matrix(1, 0, 0, 1, 114, 214)"><g clip-path="url(#5e12039b6d)"><g fill="#001e43" fill-opacity="1"><g transform="translate(2.887096, 312.441581)"><g><path d="M 4.21875 -74.203125 L 4.21875 -226.8125 C 4.21875 -240.582031 7.585938 -253.085938 14.328125 -264.328125 C 21.078125 -275.578125 30.070312 -284.503906 41.3125 -291.109375 C 52.5625 -297.710938 64.929688 -301.015625 78.421875 -301.015625 C 92.753906 -301.015625 105.539062 -297.640625 116.78125 -290.890625 C 128.019531 -284.148438 136.941406 -275.085938 143.546875 -263.703125 C 150.148438 -252.316406 153.453125 -239.738281 153.453125 -225.96875 L 153.453125 -154.296875 L 82.203125 -154.296875 L 82.203125 -226.8125 C 82.203125 -229.0625 81.078125 -230.1875 78.828125 -230.1875 C 76.585938 -230.1875 75.46875 -229.0625 75.46875 -226.8125 L 75.46875 -70.40625 C 75.46875 -68.15625 76.585938 -67.03125 78.828125 -67.03125 C 81.078125 -67.03125 82.203125 -68.15625 82.203125 -70.40625 L 82.203125 -146.71875 L 153.453125 -146.71875 L 153.453125 -73.359375 C 153.453125 -59.585938 150.21875 -47.078125 143.75 -35.828125 C 137.289062 -24.585938 128.507812 -15.664062 117.40625 -9.0625 C 106.3125 -2.457031 93.597656 0.84375 79.265625 0.84375 C 65.765625 0.84375 53.320312 -2.523438 41.9375 -9.265625 C 30.5625 -16.015625 21.429688 -25.082031 14.546875 -36.46875 C 7.660156 -47.851562 4.21875 -60.429688 4.21875 -74.203125 Z M 4.21875 -74.203125 "/></g></g></g><g fill="#001e43" fill-opacity="1"><g transform="translate(157.600975, 312.441581)"><g><path d="M 79.265625 -301.015625 C 93.316406 -301.015625 105.960938 -297.710938 117.203125 -291.109375 C 128.441406 -284.503906 137.363281 -275.578125 143.96875 -264.328125 C 150.570312 -253.085938 153.875 -240.582031 153.875 -226.8125 L 153.875 0 L 83.46875 0 L 83.46875 -83.890625 L 75.46875 -83.890625 L 75.46875 0 L 4.21875 0 L 4.21875 -226.8125 C 4.21875 -240.582031 7.585938 -253.085938 14.328125 -264.328125 C 21.078125 -275.578125 30.140625 -284.503906 41.515625 -291.109375 C 52.898438 -297.710938 65.484375 -301.015625 79.265625 -301.015625 Z M 83.46875 -155.140625 L 83.46875 -226.8125 C 83.46875 -229.0625 82.132812 -230.1875 79.46875 -230.1875 C 76.800781 -230.1875 75.46875 -229.0625 75.46875 -226.8125 L 75.46875 -155.140625 Z M 83.46875 -155.140625 "/></g></g></g><g fill="#001e43" fill-opacity="1"><g transform="translate(312.736392, 312.441581)"><g><path d="M 78.421875 -301.015625 C 86.003906 -301.015625 93.023438 -299.609375 99.484375 -296.796875 C 105.953125 -293.992188 112 -290.203125 117.625 -285.421875 C 123.53125 -290.203125 129.710938 -293.992188 136.171875 -296.796875 C 142.640625 -299.609375 149.523438 -301.015625 156.828125 -301.015625 C 171.441406 -301.015625 184.367188 -297.5 195.609375 -290.46875 C 206.859375 -283.445312 215.644531 -274.242188 221.96875 -262.859375 C 228.289062 -251.484375 231.453125 -238.90625 231.453125 -225.125 L 231.453125 0 L 161.046875 0 L 161.046875 -225.96875 C 161.046875 -228.5 159.78125 -229.765625 157.25 -229.765625 C 154.71875 -229.765625 153.453125 -228.5 153.453125 -225.96875 L 153.453125 0 L 82.625 0 L 82.625 -225.96875 C 82.625 -228.5 81.289062 -229.765625 78.625 -229.765625 C 75.957031 -229.765625 74.625 -228.5 74.625 -225.96875 L 74.625 0 L 4.21875 0 L 4.21875 -225.125 C 4.21875 -238.90625 7.378906 -251.484375 13.703125 -262.859375 C 20.023438 -274.242188 28.804688 -283.445312 40.046875 -290.46875 C 51.296875 -297.5 64.085938 -301.015625 78.421875 -301.015625 Z M 78.421875 -301.015625 "/></g></g></g><g fill="#001e43" fill-opacity="1"><g transform="translate(545.439692, 312.441581)"><g><path d="M 78.421875 -301.015625 C 93.316406 -301.015625 106.382812 -297.5 117.625 -290.46875 C 128.863281 -283.445312 137.710938 -274.242188 144.171875 -262.859375 C 150.640625 -251.484375 153.875 -238.90625 153.875 -225.125 L 153.875 -74.203125 C 153.875 -60.429688 150.640625 -47.851562 144.171875 -36.46875 C 137.710938 -25.082031 128.863281 -15.945312 117.625 -9.0625 C 106.382812 -2.175781 93.316406 1.265625 78.421875 1.265625 C 64.085938 1.265625 51.367188 -2.175781 40.265625 -9.0625 C 29.160156 -15.945312 20.375 -25.082031 13.90625 -36.46875 C 7.445312 -47.851562 4.21875 -60.429688 4.21875 -74.203125 L 4.21875 -225.125 C 4.21875 -238.90625 7.445312 -251.484375 13.90625 -262.859375 C 20.375 -274.242188 29.160156 -283.445312 40.265625 -290.46875 C 51.367188 -297.5 64.085938 -301.015625 78.421875 -301.015625 Z M 82.203125 -225.96875 C 82.203125 -228.5 81.078125 -229.765625 78.828125 -229.765625 C 76.585938 -229.765625 75.46875 -228.5 75.46875 -225.96875 L 75.46875 -73.359375 C 75.46875 -70.828125 76.585938 -69.5625 78.828125 -69.5625 C 81.078125 -69.5625 82.203125 -70.828125 82.203125 -73.359375 Z M 82.203125 -225.96875 "/></g></g></g><g fill="#001e43" fill-opacity="1"><g transform="translate(700.575109, 312.441581)"><g><path d="M 79.6875 0 L 4.21875 0 C 4.21875 -18.832031 4.21875 -38.15625 4.21875 -57.96875 C 4.21875 -77.78125 4.21875 -99.28125 4.21875 -122.46875 C 4.21875 -145.65625 4.21875 -171.796875 4.21875 -200.890625 C 4.21875 -229.984375 4.21875 -263.359375 4.21875 -301.015625 L 79.6875 -301.015625 C 96.550781 -301.015625 110.671875 -297.148438 122.046875 -289.421875 C 133.429688 -281.691406 141.929688 -271.710938 147.546875 -259.484375 C 153.171875 -247.265625 156.050781 -234.265625 156.1875 -220.484375 C 156.332031 -206.710938 153.664062 -193.644531 148.1875 -181.28125 C 142.707031 -168.914062 134.628906 -158.941406 123.953125 -151.359375 C 134.628906 -143.765625 142.707031 -133.710938 148.1875 -121.203125 C 153.664062 -108.703125 156.332031 -95.492188 156.1875 -81.578125 C 156.050781 -67.660156 153.171875 -54.519531 147.546875 -42.15625 C 141.929688 -29.789062 133.429688 -19.671875 122.046875 -11.796875 C 110.671875 -3.929688 96.550781 0 79.6875 0 Z M 82.203125 -75.46875 L 82.203125 -226.8125 C 82.203125 -229.34375 81.363281 -230.609375 79.6875 -230.609375 L 75.46875 -230.609375 L 75.46875 -71.25 L 79.6875 -71.25 C 81.363281 -71.25 82.203125 -72.65625 82.203125 -75.46875 Z M 82.203125 -75.46875 "/></g></g></g></g></g><g transform="matrix(1, 0, 0, 1, 114, 140)"><g clip-path="url(#c3afab3e7c)"><g fill="#ffffff" fill-opacity="1"><g transform="translate(86.350285, 382.371376)"><g><path d="M 24.53125 -20.6875 C 22.476562 -21.707031 20.882812 -23.644531 19.75 -26.5 C 19.007812 -28.164062 18.34375 -30.753906 17.75 -34.265625 C 17.15625 -37.773438 16.941406 -40.414062 17.109375 -42.1875 L 17.125 -44.765625 C 17.195312 -45.160156 17.316406 -46.382812 17.484375 -48.4375 C 17.660156 -50.488281 17.890625 -52.519531 18.171875 -54.53125 C 18.234375 -55.488281 18.460938 -57.222656 18.859375 -59.734375 C 19.265625 -62.253906 19.65625 -64.664062 20.03125 -66.96875 C 20.414062 -69.28125 20.664062 -70.554688 20.78125 -70.796875 L 21.8125 -74.5625 C 21.925781 -75.351562 22.113281 -76.078125 22.375 -76.734375 C 22.632812 -77.390625 22.738281 -77.800781 22.6875 -77.96875 L 22.6875 -78.828125 C 22.96875 -79.117188 23.347656 -80.101562 23.828125 -81.78125 C 24.316406 -83.46875 24.65625 -85.195312 24.84375 -86.96875 L 26.390625 -92.625 C 26.796875 -93.707031 27.269531 -95.285156 27.8125 -97.359375 C 28.351562 -99.441406 28.84375 -101.410156 29.28125 -103.265625 C 29.71875 -105.117188 29.9375 -106.046875 29.9375 -106.046875 C 29.9375 -106.046875 30.21875 -106.90625 30.78125 -108.625 C 31.019531 -109.082031 31.195312 -109.566406 31.3125 -110.078125 C 31.425781 -110.585938 31.484375 -110.84375 31.484375 -110.84375 C 31.367188 -111.1875 31.597656 -111.925781 32.171875 -113.0625 C 32.515625 -114.332031 32.660156 -115.050781 32.609375 -115.21875 C 32.546875 -115.382812 32.863281 -116.148438 33.5625 -117.515625 C 34.125 -119.234375 34.40625 -120.09375 34.40625 -120.09375 C 34.289062 -120.4375 34.664062 -122.035156 35.53125 -124.890625 C 36.394531 -127.742188 37.5 -131.007812 38.84375 -134.6875 C 40.195312 -138.363281 41.359375 -141.597656 42.328125 -144.390625 C 43.816406 -147.929688 44.75 -150.140625 45.125 -151.015625 C 45.5 -151.898438 46.03125 -153.03125 46.71875 -154.40625 L 48.109375 -157.15625 L 50.59375 -162.53125 L 53.515625 -168.359375 L 66.921875 -192.484375 L 67.859375 -193.9375 L 69.84375 -197.4375 L 72.84375 -202.15625 C 74.101562 -204.082031 74.90625 -205.101562 75.25 -205.21875 C 75.644531 -205.738281 75.816406 -206.082031 75.765625 -206.25 C 75.648438 -206.59375 76.222656 -207.453125 77.484375 -208.828125 L 79.53125 -211.203125 L 81.265625 -213.765625 L 83.0625 -216.078125 C 83.1875 -216.304688 83.832031 -217.085938 85 -218.421875 C 86.164062 -219.765625 87.335938 -221.109375 88.515625 -222.453125 C 89.691406 -223.796875 90.363281 -224.492188 90.53125 -224.546875 C 90.707031 -224.609375 90.90625 -224.867188 91.125 -225.328125 C 91.59375 -226.234375 93.226562 -227.625 96.03125 -229.5 C 98.832031 -231.382812 101.234375 -232.753906 103.234375 -233.609375 L 105.28125 -234.296875 C 105.40625 -234.515625 106.207031 -234.820312 107.6875 -235.21875 C 109.164062 -235.625 110.191406 -235.820312 110.765625 -235.8125 C 111.515625 -235.863281 112.296875 -235.359375 113.109375 -234.296875 C 113.929688 -233.242188 114.515625 -232.203125 114.859375 -231.171875 C 115.203125 -230.140625 115.34375 -227.851562 115.28125 -224.3125 C 115.21875 -220.78125 114.984375 -218.1875 114.578125 -216.53125 C 114.640625 -215.789062 114.484375 -214.976562 114.109375 -214.09375 C 113.734375 -213.207031 113.460938 -212.453125 113.296875 -211.828125 C 112.367188 -210.003906 112.101562 -208.488281 112.5 -207.28125 L 112.265625 -206.34375 C 111.910156 -205.65625 111.398438 -205.300781 110.734375 -205.28125 C 110.078125 -205.257812 109.550781 -205.554688 109.15625 -206.171875 C 108.925781 -206.867188 108.84375 -207.84375 108.90625 -209.09375 C 108.976562 -210.351562 109.210938 -211.238281 109.609375 -211.75 C 110.015625 -212.257812 110.488281 -213.414062 111.03125 -215.21875 C 111.570312 -217.019531 111.898438 -218.3125 112.015625 -219.09375 C 112.941406 -226.070312 112.722656 -230.191406 111.359375 -231.453125 C 111.078125 -231.734375 110.347656 -231.914062 109.171875 -232 C 108.003906 -232.082031 107.082031 -232.007812 106.40625 -231.78125 C 105.644531 -231.738281 104.378906 -231.375 102.609375 -230.6875 C 100.847656 -230 99.820312 -229.515625 99.53125 -229.234375 L 98.578125 -228.640625 C 98.410156 -228.585938 97.796875 -228.148438 96.734375 -227.328125 C 95.679688 -226.503906 94.613281 -225.710938 93.53125 -224.953125 C 92.320312 -223.992188 90.570312 -222.234375 88.28125 -219.671875 C 86 -217.109375 84.085938 -214.71875 82.546875 -212.5 C 81.117188 -210.5 80.285156 -209.554688 80.046875 -209.671875 C 79.878906 -209.617188 79.679688 -209.363281 79.453125 -208.90625 L 74.375 -200.953125 C 70.601562 -195.140625 68.773438 -192.0625 68.890625 -191.71875 C 68.953125 -191.550781 68.9375 -191.453125 68.84375 -191.421875 C 68.757812 -191.390625 68.71875 -191.375 68.71875 -191.375 C 68.382812 -191.257812 67.441406 -189.800781 65.890625 -187 C 64.335938 -184.207031 61.644531 -179.132812 57.8125 -171.78125 C 54.539062 -165.5625 52.285156 -161.15625 51.046875 -158.5625 C 49.816406 -155.96875 48.773438 -153.675781 47.921875 -151.6875 L 44.890625 -144.390625 L 42.21875 -136.953125 L 41.03125 -133.6875 C 40.90625 -133.46875 40.484375 -132.144531 39.765625 -129.71875 C 39.054688 -127.289062 38.253906 -124.550781 37.359375 -121.5 C 36.472656 -118.457031 35.625 -115.5625 34.8125 -112.8125 C 34.007812 -110.0625 33.410156 -108.148438 33.015625 -107.078125 L 29.484375 -93.640625 C 28.265625 -89.242188 27.425781 -85.734375 26.96875 -83.109375 L 26.453125 -81.234375 C 25.992188 -80.304688 25.445312 -78.359375 24.8125 -75.390625 C 24.175781 -72.429688 23.507812 -69.269531 22.8125 -65.90625 C 22.125 -62.539062 21.609375 -59.65625 21.265625 -57.25 L 20.75 -52.796875 C 20.570312 -51.023438 20.425781 -49.597656 20.3125 -48.515625 C 20.195312 -47.429688 20.078125 -45.921875 19.953125 -43.984375 C 20.003906 -41.523438 20.226562 -38.695312 20.625 -35.5 C 21.019531 -32.3125 21.5 -29.859375 22.0625 -28.140625 C 23.882812 -23.796875 26.019531 -22.21875 28.46875 -23.40625 C 29.269531 -23.863281 30.285156 -24.53125 31.515625 -25.40625 C 32.742188 -26.289062 33.644531 -27.019531 34.21875 -27.59375 L 35.328125 -28.53125 C 35.671875 -28.644531 37.21875 -30.15625 39.96875 -33.0625 C 42.71875 -35.976562 45.835938 -39.335938 49.328125 -43.140625 C 49.847656 -43.890625 50.820312 -45.117188 52.25 -46.828125 C 53.675781 -48.546875 55.132812 -50.3125 56.625 -52.125 C 58.113281 -53.945312 59.054688 -55.117188 59.453125 -55.640625 L 66.5 -64.53125 L 69.421875 -68.625 C 71.140625 -70.90625 72 -72.046875 72 -72.046875 C 72.164062 -72.097656 73.796875 -74.351562 76.890625 -78.8125 L 78.078125 -80.359375 C 78.078125 -80.359375 78.273438 -80.613281 78.671875 -81.125 C 79.078125 -81.632812 79.519531 -82.34375 80 -83.25 C 81.300781 -85.03125 82.238281 -85.914062 82.8125 -85.90625 C 83.269531 -85.6875 83.410156 -85.832031 83.234375 -86.34375 C 83.234375 -86.34375 83.265625 -86.398438 83.328125 -86.515625 C 83.390625 -86.628906 83.503906 -86.710938 83.671875 -86.765625 C 84.878906 -87.160156 84.160156 -85.875 81.515625 -82.90625 C 79.285156 -79.882812 77.96875 -77.835938 77.5625 -76.765625 C 77.457031 -76.535156 77.160156 -76.148438 76.671875 -75.609375 C 76.191406 -75.066406 75.75 -74.535156 75.34375 -74.015625 C 74.769531 -73.453125 74.28125 -72.910156 73.875 -72.390625 C 73.476562 -71.878906 73.25 -71.425781 73.1875 -71.03125 C 73.082031 -70.800781 72.929688 -70.554688 72.734375 -70.296875 C 72.535156 -70.046875 72.4375 -69.921875 72.4375 -69.921875 C 72.25 -69.859375 71.6875 -69.242188 70.75 -68.078125 C 69.8125 -66.910156 69.226562 -66.097656 69 -65.640625 L 67.171875 -63.328125 C 66.378906 -62.304688 66.039062 -61.625 66.15625 -61.28125 C 66.15625 -61.28125 66.125 -61.222656 66.0625 -61.109375 C 66.007812 -61.003906 65.890625 -60.921875 65.703125 -60.859375 C 65.535156 -60.804688 65.082031 -60.320312 64.34375 -59.40625 C 63.601562 -58.488281 63.203125 -57.828125 63.140625 -57.421875 C 62.910156 -56.960938 62.65625 -56.597656 62.375 -56.328125 C 62.195312 -56.265625 61.804688 -55.847656 61.203125 -55.078125 C 60.597656 -54.304688 59.960938 -53.523438 59.296875 -52.734375 L 55.671875 -48.125 C 51.492188 -42.925781 49.320312 -40.296875 49.15625 -40.234375 C 48.800781 -40.117188 48.65625 -39.976562 48.71875 -39.8125 C 48.71875 -39.8125 48.546875 -39.613281 48.203125 -39.21875 C 47.867188 -38.820312 47.5 -38.363281 47.09375 -37.84375 C 46.300781 -36.820312 45.554688 -35.914062 44.859375 -35.125 C 44.628906 -34.65625 43.945312 -33.859375 42.8125 -32.734375 C 42.34375 -32.378906 41.960938 -32.054688 41.671875 -31.765625 C 41.390625 -31.484375 41.195312 -31.226562 41.09375 -31 C 41.144531 -30.832031 40.113281 -29.632812 38 -27.40625 C 34.394531 -23.9375 31.6875 -21.757812 29.875 -20.875 C 28.070312 -19.988281 26.289062 -19.925781 24.53125 -20.6875 Z M 87.203125 -90.78125 C 85.078125 -89.132812 86.453125 -91.585938 91.328125 -98.140625 L 94.5 -102.328125 L 97.15625 -106.359375 C 98.125 -107.441406 98.550781 -108.15625 98.4375 -108.5 C 98.4375 -108.5 98.507812 -108.566406 98.65625 -108.703125 C 98.800781 -108.847656 98.957031 -108.945312 99.125 -109 C 99.8125 -109.226562 100.328125 -109.972656 100.671875 -111.234375 L 103.328125 -115.25 C 104.304688 -116.332031 105.050781 -117.242188 105.5625 -117.984375 C 106.082031 -118.722656 106.914062 -120.234375 108.0625 -122.515625 C 108.925781 -123.941406 109.382812 -124.851562 109.4375 -125.25 C 109.488281 -125.65625 109.34375 -126.375 109 -127.40625 C 108.945312 -128.144531 108.847656 -128.726562 108.703125 -129.15625 C 108.566406 -129.59375 108.554688 -129.921875 108.671875 -130.140625 C 109.242188 -131.285156 110.128906 -131.484375 111.328125 -130.734375 C 111.898438 -130.148438 112.351562 -129.054688 112.6875 -127.453125 C 113.03125 -125.859375 112.972656 -124.613281 112.515625 -123.71875 C 112.234375 -122.851562 111.832031 -122.335938 111.3125 -122.171875 C 110.90625 -122.222656 110.367188 -121.851562 109.703125 -121.0625 C 109.566406 -120.832031 109.398438 -120.585938 109.203125 -120.328125 C 109.003906 -120.078125 108.820312 -119.921875 108.65625 -119.859375 C 108.488281 -119.804688 108.289062 -119.546875 108.0625 -119.078125 C 107.9375 -118.285156 107.335938 -117.519531 106.265625 -116.78125 C 105.285156 -115.695312 104.796875 -114.867188 104.796875 -114.296875 C 104.910156 -113.953125 104.625 -113.378906 103.9375 -112.578125 C 103.363281 -112.015625 102.847656 -111.273438 102.390625 -110.359375 C 102.273438 -110.128906 102.070312 -109.875 101.78125 -109.59375 C 101.5 -109.3125 101.359375 -109.171875 101.359375 -109.171875 C 101.015625 -109.054688 99.925781 -107.460938 98.09375 -104.390625 C 97.976562 -104.160156 97.789062 -103.859375 97.53125 -103.484375 C 97.269531 -103.117188 97.140625 -102.9375 97.140625 -102.9375 C 96.972656 -102.875 96.585938 -102.457031 95.984375 -101.6875 C 95.390625 -100.914062 94.773438 -100.046875 94.140625 -99.078125 L 93.546875 -98.3125 C 93.367188 -98.257812 92.882812 -97.710938 92.09375 -96.671875 L 90.640625 -95.0625 C 90.296875 -94.945312 90.179688 -94.710938 90.296875 -94.359375 C 90.347656 -94.191406 89.957031 -93.640625 89.125 -92.703125 C 88.289062 -91.765625 87.648438 -91.125 87.203125 -90.78125 Z M 87.203125 -90.78125 "/></g></g></g><g fill="#ffffff" fill-opacity="1"><g transform="translate(235.717274, 332.904393)"><g><path d="M -17.59375 -72.0625 C -18.445312 -71.78125 -19.269531 -71.984375 -20.0625 -72.671875 C -21.039062 -73.285156 -21.53125 -74.164062 -21.53125 -75.3125 C -21.863281 -76.34375 -21.882812 -77.289062 -21.59375 -78.15625 L -21.421875 -80.203125 C -21.484375 -80.367188 -22.03125 -79.851562 -23.0625 -78.65625 C -24.09375 -77.457031 -24.976562 -76.265625 -25.71875 -75.078125 C -26.519531 -74.046875 -27.734375 -72.691406 -29.359375 -71.015625 C -30.992188 -69.335938 -32.148438 -68.382812 -32.828125 -68.15625 C -34.367188 -67.644531 -35.3125 -67.898438 -35.65625 -68.921875 C -35.820312 -69.441406 -35.484375 -70.410156 -34.640625 -71.828125 C -33.546875 -73.710938 -32.109375 -75.707031 -30.328125 -77.8125 C -28.554688 -79.925781 -26.898438 -81.8125 -25.359375 -83.46875 C -23.523438 -85.40625 -22.335938 -86.554688 -21.796875 -86.921875 C -21.265625 -87.285156 -20.820312 -87.242188 -20.46875 -86.796875 C -20.363281 -86.453125 -19.882812 -86.421875 -19.03125 -86.703125 C -17.488281 -87.210938 -16.867188 -86.796875 -17.171875 -85.453125 C -17.484375 -84.117188 -17.785156 -83.019531 -18.078125 -82.15625 C -18.546875 -81.25 -18.863281 -80.050781 -19.03125 -78.5625 C -19.195312 -77.082031 -18.828125 -75.828125 -17.921875 -74.796875 C -17.585938 -74.335938 -16.898438 -74.421875 -15.859375 -75.046875 C -14.828125 -75.671875 -14.3125 -75.984375 -14.3125 -75.984375 C -12.71875 -76.910156 -10.289062 -78.765625 -7.03125 -81.546875 C -3.769531 -84.335938 0.285156 -87.867188 5.140625 -92.140625 L 5.5625 -92.578125 L 6.34375 -92.828125 L 6.6875 -92.65625 C 7.082031 -92.59375 7.320312 -92.429688 7.40625 -92.171875 C 7.5 -91.921875 7.40625 -91.65625 7.125 -91.375 L -5.3125 -79.828125 C -7.320312 -77.835938 -9.226562 -76.257812 -11.03125 -75.09375 C -12.84375 -73.925781 -13.75 -73.34375 -13.75 -73.34375 L -14.515625 -73.078125 C -15.484375 -72.566406 -16.507812 -72.226562 -17.59375 -72.0625 Z M -33.078125 -70.640625 L -31.703125 -71.671875 C -30.859375 -72.515625 -29.75 -73.734375 -28.375 -75.328125 C -27 -76.929688 -26.25 -77.847656 -26.125 -78.078125 C -25.675781 -78.984375 -24.734375 -80.148438 -23.296875 -81.578125 C -22.390625 -82.253906 -22 -82.765625 -22.125 -83.109375 C -22.226562 -83.453125 -22.4375 -83.523438 -22.75 -83.328125 C -23.0625 -83.140625 -23.757812 -82.382812 -24.84375 -81.0625 C -26.332031 -79.8125 -27.734375 -78.300781 -29.046875 -76.53125 C -30.367188 -74.769531 -31.3125 -73.320312 -31.875 -72.1875 Z M -33.078125 -70.640625 "/></g></g></g><g fill="#ffffff" fill-opacity="1"><g transform="translate(268.624288, 322.006331)"><g><path d="M 12.046875 -75.59375 C 8.503906 -74.226562 5.90625 -73.46875 4.25 -73.3125 C -1.289062 -72.789062 -4.195312 -75.53125 -4.46875 -81.53125 C -4.570312 -83.019531 -4.796875 -83.707031 -5.140625 -83.59375 C -5.203125 -83.757812 -5.601562 -83.53125 -6.34375 -82.90625 C -6.925781 -82.34375 -8.273438 -81.375 -10.390625 -80 C -12.503906 -78.632812 -14.128906 -77.671875 -15.265625 -77.109375 C -16.640625 -76.648438 -17.753906 -76.566406 -18.609375 -76.859375 C -19.335938 -77.367188 -19.648438 -77.742188 -19.546875 -77.984375 C -19.316406 -78.429688 -19.628906 -78.222656 -20.484375 -77.359375 C -21.347656 -76.503906 -22.5 -75.082031 -23.9375 -73.09375 C -25.820312 -70.757812 -27.203125 -69.207031 -28.078125 -68.4375 C -28.960938 -67.675781 -29.75 -67.46875 -30.4375 -67.8125 C -31.125 -68.144531 -31.378906 -69.203125 -31.203125 -70.984375 C -31.023438 -71.609375 -30.546875 -72.90625 -29.765625 -74.875 C -28.992188 -76.84375 -28.207031 -78.765625 -27.40625 -80.640625 C -26.601562 -82.523438 -26.148438 -83.582031 -26.046875 -83.8125 C -25.753906 -84.09375 -25.296875 -84.289062 -24.671875 -84.40625 C -24.046875 -84.519531 -23.675781 -84.40625 -23.5625 -84.0625 L -23.296875 -83.296875 C -23.023438 -83.003906 -23.128906 -82.160156 -23.609375 -80.765625 C -24.085938 -79.367188 -24.757812 -77.957031 -25.625 -76.53125 C -25.738281 -76.300781 -25.894531 -76.054688 -26.09375 -75.796875 C -26.300781 -75.546875 -26.378906 -75.335938 -26.328125 -75.171875 C -26.097656 -75.046875 -25.878906 -75.113281 -25.671875 -75.375 C -25.460938 -75.632812 -25.273438 -75.789062 -25.109375 -75.84375 L -24.25 -76.703125 L -23.90625 -77.390625 L -20.8125 -80.96875 L -19.875 -82.4375 C -18.726562 -84.144531 -17.585938 -84.710938 -16.453125 -84.140625 C -15.992188 -83.910156 -15.765625 -83.222656 -15.765625 -82.078125 C -16.003906 -81.046875 -15.835938 -80.53125 -15.265625 -80.53125 C -14.753906 -80.695312 -13.507812 -81.394531 -11.53125 -82.625 C -9.550781 -83.851562 -7.617188 -85.207031 -5.734375 -86.6875 C -3.847656 -88.164062 -2.851562 -89.015625 -2.75 -89.234375 C -2.507812 -89.703125 -1.945312 -90.175781 -1.0625 -90.65625 C -0.175781 -91.144531 0.488281 -91.273438 0.9375 -91.046875 C 1.863281 -90.585938 1.953125 -89.753906 1.203125 -88.546875 C 0.679688 -87.804688 0.175781 -86.738281 -0.3125 -85.34375 C -0.800781 -83.945312 -0.898438 -82.535156 -0.609375 -81.109375 C -0.160156 -79.160156 0.457031 -77.847656 1.25 -77.171875 C 2.625 -75.898438 5.285156 -75.921875 9.234375 -77.234375 C 15.109375 -79.554688 20.25 -82.398438 24.65625 -85.765625 C 29.0625 -89.128906 33.378906 -92.457031 37.609375 -95.75 L 40.609375 -97.90625 L 47.90625 -104.3125 L 48.84375 -104.921875 L 51 -107.03125 C 51.28125 -107.320312 51.546875 -107.507812 51.796875 -107.59375 C 52.054688 -107.675781 52.242188 -107.835938 52.359375 -108.078125 L 53.140625 -108.328125 C 53.828125 -107.972656 54.113281 -107.6875 54 -107.46875 C 53.882812 -107.226562 53.753906 -107.039062 53.609375 -106.90625 C 53.472656 -106.769531 53.253906 -106.5625 52.953125 -106.28125 L 52.359375 -105.484375 C 49.898438 -103.148438 48.007812 -101.382812 46.6875 -100.1875 C 45.375 -99 44.117188 -97.921875 42.921875 -96.953125 C 41.722656 -95.992188 40.148438 -94.710938 38.203125 -93.109375 C 33.804688 -89.179688 29.175781 -85.648438 24.3125 -82.515625 C 19.445312 -79.378906 15.359375 -77.070312 12.046875 -75.59375 Z M 12.046875 -75.59375 "/></g></g></g><g fill="#ffffff" fill-opacity="1"><g transform="translate(348.063879, 295.697727)"><g><path d="M -26.234375 -68.921875 C -27.210938 -68.398438 -27.84375 -68.140625 -28.125 -68.140625 C -28.414062 -68.148438 -28.820312 -68.351562 -29.34375 -68.75 C -30.351562 -69.550781 -30.695312 -71.050781 -30.375 -73.25 C -30.0625 -75.445312 -29.796875 -76.773438 -29.578125 -77.234375 L -26.65625 -83.03125 L -24.84375 -84.484375 L -24.25 -84.40625 L -20.8125 -85.265625 C -19.957031 -85.546875 -19.242188 -85.398438 -18.671875 -84.828125 C -18.453125 -84.710938 -18.253906 -84.394531 -18.078125 -83.875 L -17.3125 -81.5625 C -16.5625 -81.625 -15.789062 -81.597656 -15 -81.484375 C -13.289062 -81.472656 -11.320312 -81.835938 -9.09375 -82.578125 C -4.632812 -84.046875 -1.046875 -85.707031 1.671875 -87.5625 C 4.390625 -89.414062 6.773438 -91.25 8.828125 -93.0625 C 9.171875 -93.757812 9.628906 -93.820312 10.203125 -93.25 C 10.722656 -92.851562 10.691406 -92.367188 10.109375 -91.796875 L 8.140625 -90 C 5.796875 -87.894531 2.992188 -86.015625 -0.265625 -84.359375 C -3.523438 -82.710938 -6.097656 -81.578125 -7.984375 -80.953125 C -11.410156 -79.816406 -14.492188 -79.082031 -17.234375 -78.75 L -17.921875 -78.21875 C -18.265625 -76.96875 -19.265625 -75.257812 -20.921875 -73.09375 C -22.578125 -70.9375 -24.347656 -69.546875 -26.234375 -68.921875 Z M -21.34375 -81.671875 C -20.9375 -81.609375 -20.789062 -81.75 -20.90625 -82.09375 C -21.070312 -82.03125 -21.210938 -82.023438 -21.328125 -82.078125 C -21.441406 -82.140625 -21.585938 -82.140625 -21.765625 -82.078125 C -22.273438 -81.910156 -22.132812 -81.773438 -21.34375 -81.671875 Z M -26.234375 -71.484375 C -26.066406 -71.535156 -25.566406 -71.742188 -24.734375 -72.109375 C -23.910156 -72.484375 -23.066406 -73.382812 -22.203125 -74.8125 C -20.953125 -76.75 -20.425781 -77.875 -20.625 -78.1875 C -20.820312 -78.5 -21.03125 -78.710938 -21.25 -78.828125 L -23.046875 -79.09375 L -24.34375 -79.515625 C -24.675781 -79.398438 -25.015625 -79.144531 -25.359375 -78.75 C -25.703125 -78.351562 -26.140625 -77.5 -26.671875 -76.1875 C -27.347656 -74.25 -27.484375 -72.96875 -27.078125 -72.34375 C -26.679688 -71.71875 -26.398438 -71.429688 -26.234375 -71.484375 Z M -26.234375 -71.484375 "/></g></g></g><g fill="#ffffff" fill-opacity="1"><g transform="translate(384.055928, 283.777971)"><g><path d="M -26.609375 -60.515625 L -27.046875 -61.8125 C -27.546875 -62.78125 -27.460938 -64.273438 -26.796875 -66.296875 C -26.140625 -68.328125 -25.128906 -70.421875 -23.765625 -72.578125 C -22.785156 -74.234375 -21.550781 -75.828125 -20.0625 -77.359375 C -18.570312 -78.898438 -17.488281 -79.785156 -16.8125 -80.015625 C -16.164062 -80.410156 -15.644531 -81.15625 -15.25 -82.25 C -15.132812 -83.050781 -15.222656 -83.734375 -15.515625 -84.296875 C -15.804688 -84.867188 -16.117188 -85.101562 -16.453125 -85 C -17.253906 -85.113281 -18.695312 -84.015625 -20.78125 -81.703125 C -22.875 -79.398438 -24.664062 -77.046875 -26.15625 -74.640625 C -28.039062 -71.734375 -29.039062 -69.3125 -29.15625 -67.375 C -29.445312 -66.519531 -29.851562 -66.007812 -30.375 -65.84375 L -30.890625 -65.671875 C -31.398438 -65.492188 -31.738281 -65.664062 -31.90625 -66.1875 C -32.1875 -67.03125 -32.210938 -67.679688 -31.984375 -68.140625 C -31.691406 -69.566406 -31.144531 -71.363281 -30.34375 -73.53125 C -29.539062 -75.707031 -28.710938 -77.796875 -27.859375 -79.796875 L -24.3125 -88.09375 L -22.53125 -92.09375 C -22.0625 -93.019531 -21.742188 -93.796875 -21.578125 -94.421875 C -23.398438 -93.054688 -24.488281 -92.023438 -24.84375 -91.328125 C -25.40625 -90.773438 -26.472656 -89.851562 -28.046875 -88.5625 C -29.617188 -87.28125 -30.742188 -86.53125 -31.421875 -86.3125 C -32.453125 -85.96875 -32.859375 -86.3125 -32.640625 -87.34375 C -32.398438 -87.789062 -31.859375 -88.441406 -31.015625 -89.296875 L -27.390625 -92.203125 L -24.3125 -94.9375 L -19.15625 -99.21875 L -12.96875 -111.53125 L -9.4375 -118.125 L -4.375 -126.9375 L 0.421875 -133.9375 L 3.34375 -138.046875 L 4.90625 -140.28125 L 7.21875 -142.765625 C 9.050781 -145.265625 11.222656 -147.738281 13.734375 -150.1875 C 16.253906 -152.644531 18.578125 -154.691406 20.703125 -156.328125 L 22.578125 -157.546875 C 23.722656 -158.671875 25.09375 -159.691406 26.6875 -160.609375 L 29.265625 -162.328125 C 30.347656 -163.066406 31.40625 -163.601562 32.4375 -163.9375 C 33.46875 -164.28125 34.128906 -164.3125 34.421875 -164.03125 C 35.773438 -163.34375 36.257812 -161.882812 35.875 -159.65625 C 35.632812 -158.625 35.179688 -157.234375 34.515625 -155.484375 C 33.859375 -153.742188 33.242188 -152.597656 32.671875 -152.046875 L 30.1875 -148.375 C 29.71875 -147.445312 29.097656 -146.425781 28.328125 -145.3125 C 27.554688 -144.207031 26.882812 -143.375 26.3125 -142.8125 L 23.5625 -139.03125 L 21.859375 -137.328125 C 21.273438 -136.753906 21.015625 -136.382812 21.078125 -136.21875 C 21.191406 -135.875 20.960938 -135.414062 20.390625 -134.84375 L 19.109375 -133.578125 C 18.535156 -133.003906 17.257812 -131.675781 15.28125 -129.59375 C 13.300781 -127.507812 11.066406 -125.203125 8.578125 -122.671875 C 6.097656 -120.140625 3.882812 -117.929688 1.9375 -116.046875 C -0.0078125 -114.171875 -1.179688 -112.972656 -1.578125 -112.453125 L -5.015625 -109.03125 L -9.5625 -104.671875 L -14.4375 -99.625 L -14.625 -99.296875 L -15.3125 -98.765625 L -17.109375 -97.328125 L -17.703125 -96.5625 L -18.484375 -95.453125 C -18.941406 -94.535156 -19.425781 -93.5625 -19.9375 -92.53125 C -20.457031 -91.507812 -20.953125 -90.253906 -21.421875 -88.765625 L -24.765625 -80.8125 C -25.109375 -80.125 -25.191406 -79.804688 -25.015625 -79.859375 L -23.203125 -82.171875 C -21.785156 -83.609375 -20.503906 -84.75 -19.359375 -85.59375 C -18.210938 -86.445312 -17.1875 -86.929688 -16.28125 -87.046875 C -15.363281 -87.160156 -14.59375 -86.847656 -13.96875 -86.109375 C -12.882812 -85.140625 -12.546875 -83.535156 -12.953125 -81.296875 C -13.359375 -79.066406 -14.273438 -76.675781 -15.703125 -74.125 C -20.054688 -67.15625 -23.285156 -62.847656 -25.390625 -61.203125 Z M -14.78125 -103.234375 C -14.726562 -103.066406 -14.039062 -103.578125 -12.71875 -104.765625 C -11.976562 -105.398438 -11.40625 -105.96875 -11 -106.46875 C -10.601562 -106.976562 -10.316406 -107.265625 -10.140625 -107.328125 C -9.972656 -107.378906 -9.070312 -108.242188 -7.4375 -109.921875 C -5.8125 -111.609375 -4.769531 -112.628906 -4.3125 -112.984375 L 0.328125 -117.09375 L 4.34375 -121.265625 C 5.207031 -122.117188 6.09375 -122.882812 7 -123.5625 C 7.300781 -123.851562 7.765625 -124.34375 8.390625 -125.03125 C 9.015625 -125.71875 9.613281 -126.335938 10.1875 -126.890625 L 13.703125 -130.9375 L 18.34375 -135.890625 L 24.359375 -143.578125 C 27.148438 -147.171875 29.117188 -150.101562 30.265625 -152.375 L 31.890625 -155.203125 C 32.066406 -155.265625 32.210938 -155.550781 32.328125 -156.0625 C 32.453125 -156.570312 32.625 -157.054688 32.84375 -157.515625 L 33.390625 -159.40625 C 33.492188 -159.625 33.460938 -159.988281 33.296875 -160.5 C 33.117188 -161.019531 32.769531 -161.195312 32.25 -161.03125 C 31.851562 -161.09375 30.910156 -160.78125 29.421875 -160.09375 C 27.941406 -159.414062 27.09375 -158.84375 26.875 -158.375 L 23.4375 -155.828125 C 21.601562 -154.453125 19.515625 -152.710938 17.171875 -150.609375 C 14.828125 -148.503906 12.679688 -146.367188 10.734375 -144.203125 C 8.554688 -141.578125 6.175781 -138.550781 3.59375 -135.125 C 1.019531 -131.707031 -0.863281 -128.945312 -2.0625 -126.84375 C -2.875 -125.25 -3.363281 -124.421875 -3.53125 -124.359375 C -3.53125 -124.359375 -4.097656 -123.359375 -5.234375 -121.359375 C -6.378906 -119.367188 -7.664062 -117.09375 -9.09375 -114.53125 C -10.53125 -111.96875 -11.765625 -109.65625 -12.796875 -107.59375 L -14.703125 -103.828125 C -14.867188 -103.773438 -14.894531 -103.578125 -14.78125 -103.234375 Z M -25.234375 -64.125 C -25.054688 -64.175781 -24.320312 -65.128906 -23.03125 -66.984375 C -21.75 -68.835938 -20.421875 -70.847656 -19.046875 -73.015625 C -17.671875 -75.179688 -16.894531 -76.578125 -16.71875 -77.203125 C -16.65625 -77.585938 -16.710938 -77.753906 -16.890625 -77.703125 C -17.234375 -77.585938 -17.929688 -76.972656 -18.984375 -75.859375 C -20.046875 -74.753906 -21.035156 -73.578125 -21.953125 -72.328125 C -22.703125 -71.117188 -23.519531 -69.421875 -24.40625 -67.234375 C -25.289062 -65.046875 -25.566406 -64.007812 -25.234375 -64.125 Z M -25.234375 -64.125 "/></g></g></g></g></g><g transform="matrix(1, 0, 0, 1, 370, 98)"><g clip-path="url(#330df47005)"><g fill="#ffffff" fill-opacity="1"><g transform="translate(119.466338, 490.444787)"><g><path d="M 197.125 -13.5 C 197.363281 -12.90625 196.992188 -12.53125 196.015625 -12.375 C 195.046875 -12.21875 192.785156 -12.238281 189.234375 -12.4375 C 184.804688 -12.53125 181.441406 -12.691406 179.140625 -12.921875 C 176.847656 -13.160156 174.632812 -13.664062 172.5 -14.4375 C 166.90625 -16.820312 161.582031 -21.164062 156.53125 -27.46875 L 152.34375 -32.734375 C 151.101562 -34.085938 150.320312 -35.164062 150 -35.96875 C 149.84375 -36.363281 149.25 -37.285156 148.21875 -38.734375 C 146.457031 -40.796875 144.207031 -44.398438 141.46875 -49.546875 C 138.726562 -54.691406 136.109375 -60.234375 133.609375 -66.171875 C 131.117188 -72.117188 129.320312 -77.070312 128.21875 -81.03125 L 126 -87.40625 L 124.5625 -92.75 L 123.8125 -95.546875 L 122.59375 -102.015625 C 122.519531 -103.359375 122.285156 -104.53125 121.890625 -105.53125 C 121.328125 -106.9375 121.007812 -108.316406 120.9375 -109.671875 C 120.738281 -111.898438 120.300781 -114.726562 119.625 -118.15625 L 119.15625 -121.09375 L 118.390625 -127.375 L 117.234375 -134.546875 L 116.828125 -139.9375 L 115.171875 -158 C 115.410156 -158.550781 115.457031 -159.722656 115.3125 -161.515625 C 115.175781 -163.316406 115.003906 -164.75 114.796875 -165.8125 C 114.835938 -166.300781 114.859375 -166.832031 114.859375 -167.40625 C 114.859375 -167.976562 114.882812 -168.503906 114.9375 -168.984375 L 114.9375 -170.71875 C 114.695312 -171.320312 114.632812 -171.765625 114.75 -172.046875 C 114.863281 -172.328125 114.84375 -172.671875 114.6875 -173.078125 L 114.703125 -174.796875 L 113.796875 -179.640625 L 113.734375 -180.671875 L 114.171875 -182.21875 L 114.09375 -183.234375 L 113.6875 -185.15625 L 113.5 -188.1875 L 113.21875 -191.546875 L 112.859375 -194.171875 C 112.691406 -194.566406 112.640625 -194.835938 112.703125 -194.984375 C 112.773438 -195.128906 112.769531 -195.300781 112.6875 -195.5 L 112.5 -195.078125 C 112.257812 -194.523438 112.035156 -193.914062 111.828125 -193.25 C 111.628906 -192.59375 111.070312 -191.390625 110.15625 -189.640625 L 106.578125 -179.53125 L 101.421875 -164.640625 C 100.816406 -163.242188 100.332031 -161.550781 99.96875 -159.5625 C 99.851562 -159.28125 99.734375 -159 99.609375 -158.71875 C 99.492188 -158.4375 99.375 -158.160156 99.25 -157.890625 C 99.09375 -157.128906 98.882812 -156.347656 98.625 -155.546875 C 98.363281 -154.742188 98.054688 -153.921875 97.703125 -153.078125 L 97.453125 -151.96875 L 96.375 -147.71875 C 95.101562 -143.96875 93.6875 -140.28125 92.125 -136.65625 L 87.9375 -124.578125 L 85.234375 -116.578125 L 80.5625 -102.21875 L 79.109375 -97.140625 L 74.921875 -83.328125 L 73.96875 -78.765625 C 73.8125 -78.015625 73.570312 -77.171875 73.25 -76.234375 C 72.925781 -75.296875 72.6875 -74.445312 72.53125 -73.6875 C 71.8125 -72.007812 70.648438 -67.96875 69.046875 -61.5625 L 64.96875 -45.703125 C 64.25 -42.867188 63.617188 -39.957031 63.078125 -36.96875 C 62.546875 -33.988281 62.335938 -32.0625 62.453125 -31.1875 C 62.617188 -30.78125 62.976562 -30.457031 63.53125 -30.21875 C 64.207031 -30.257812 64.367188 -29.859375 64.015625 -29.015625 C 63.609375 -27.710938 62.75 -27.257812 61.4375 -27.65625 C 60.125 -28.050781 59.207031 -29.1875 58.6875 -31.0625 C 58.457031 -32.8125 58.507812 -35.144531 58.84375 -38.0625 C 59.1875 -40.976562 60.070312 -45.265625 61.5 -50.921875 C 62.21875 -53.742188 62.785156 -56.222656 63.203125 -58.359375 C 63.628906 -60.492188 63.804688 -61.660156 63.734375 -61.859375 C 63.773438 -62.335938 63.972656 -62.992188 64.328125 -63.828125 C 64.679688 -64.660156 64.835938 -65.421875 64.796875 -66.109375 L 64.984375 -68.265625 L 66.0625 -70.765625 L 67.453125 -75.140625 C 67.804688 -77.128906 68.234375 -79.085938 68.734375 -81.015625 C 69.234375 -82.953125 70.484375 -87.207031 72.484375 -93.78125 L 75.65625 -104.0625 C 76.257812 -106.613281 77.144531 -109.742188 78.3125 -113.453125 C 79.488281 -117.171875 80.675781 -120.710938 81.875 -124.078125 C 83.082031 -127.441406 83.925781 -129.679688 84.40625 -130.796875 C 84.71875 -131.160156 84.921875 -131.816406 85.015625 -132.765625 C 85.046875 -133.242188 85.171875 -133.640625 85.390625 -133.953125 C 85.609375 -134.273438 85.785156 -134.578125 85.921875 -134.859375 L 86.625 -136.546875 L 87.765625 -139.765625 L 88.71875 -142.578125 L 90.03125 -146.234375 L 91 -149.03125 C 91.15625 -149.789062 91.472656 -150.726562 91.953125 -151.84375 L 92.375 -155.140625 C 92.613281 -155.703125 92.90625 -156.28125 93.25 -156.875 C 93.59375 -157.46875 93.84375 -158.144531 94 -158.90625 C 94.113281 -160.34375 94.671875 -161.832031 95.671875 -163.375 L 97.09375 -168.46875 L 105.625 -192.328125 L 107.640625 -197.640625 C 108.242188 -199.035156 108.796875 -200.410156 109.296875 -201.765625 C 109.804688 -203.117188 110.113281 -203.9375 110.21875 -204.21875 C 110.21875 -204.21875 110.269531 -204.238281 110.375 -204.28125 C 110.476562 -204.320312 110.488281 -204.441406 110.40625 -204.640625 C 110.289062 -205.523438 110.128906 -206.210938 109.921875 -206.703125 C 109.722656 -207.203125 109.6875 -207.585938 109.8125 -207.859375 C 109.925781 -208.140625 110.585938 -208.519531 111.796875 -209 C 111.898438 -209.289062 112.007812 -209.570312 112.125 -209.84375 C 112.25 -210.125 112.375 -210.40625 112.5 -210.6875 L 116.046875 -220.078125 L 117.828125 -224.265625 L 120.109375 -230.71875 L 121.71875 -234.46875 L 128.859375 -252.234375 L 133.890625 -263.953125 C 134.003906 -264.222656 134.019531 -264.457031 133.9375 -264.65625 C 133.863281 -264.851562 133.929688 -264.992188 134.140625 -265.078125 L 134.78125 -266.046875 C 135.113281 -266.398438 135.316406 -267.0625 135.390625 -268.03125 L 136.40625 -269.8125 L 139.6875 -278.0625 L 144.1875 -290.265625 L 145.15625 -293.078125 C 145.3125 -293.828125 145.570312 -294.625 145.9375 -295.46875 C 145.9375 -295.46875 146.289062 -296.300781 147 -297.96875 L 148.078125 -302.21875 C 148.441406 -303.050781 148.488281 -303.53125 148.21875 -303.65625 C 148.570312 -304.476562 148.765625 -305.132812 148.796875 -305.625 L 141.734375 -300.71875 C 141.460938 -300.84375 140.097656 -300.359375 137.640625 -299.265625 C 135.191406 -298.171875 132.457031 -296.90625 129.4375 -295.46875 C 126.425781 -294.039062 123.90625 -292.6875 121.875 -291.40625 L 115.71875 -288.609375 L 105.90625 -283.640625 C 103.195312 -282.328125 100.914062 -281.242188 99.0625 -280.390625 C 97.21875 -279.535156 96.226562 -278.96875 96.09375 -278.6875 L 93.828125 -277.4375 C 91.117188 -276.125 88.378906 -274.738281 85.609375 -273.28125 C 82.835938 -271.832031 81.289062 -270.925781 80.96875 -270.5625 C 80.757812 -270.476562 80.273438 -270.226562 79.515625 -269.8125 C 78.765625 -269.40625 77.992188 -269.039062 77.203125 -268.71875 C 76.398438 -268.394531 75.648438 -268.09375 74.953125 -267.8125 C 74.253906 -267.539062 73.75 -267.222656 73.4375 -266.859375 C 73.3125 -266.585938 72.46875 -266.082031 70.90625 -265.34375 C 69.351562 -264.601562 67.554688 -263.597656 65.515625 -262.328125 L 54.046875 -256.34375 L 48.4375 -253.046875 C 46.90625 -252.222656 44.625 -250.972656 41.59375 -249.296875 C 38.5625 -247.617188 36.628906 -246.382812 35.796875 -245.59375 L 29.109375 -241.546875 L 27.703125 -240.625 C 27.117188 -240.394531 26.238281 -239.867188 25.0625 -239.046875 C 23.882812 -238.222656 21.816406 -236.878906 18.859375 -235.015625 L 10.90625 -229.765625 C 8.675781 -228.421875 7.5 -227.601562 7.375 -227.3125 C 7.269531 -227.03125 6.195312 -226.253906 4.15625 -224.984375 L 0.921875 -222.65625 L -0.34375 -221.453125 L -9.609375 -214.296875 C -12.597656 -211.941406 -14.953125 -209.726562 -16.671875 -207.65625 C -16.796875 -207.375 -17.160156 -207.113281 -17.765625 -206.875 C -17.953125 -206.800781 -18.8125 -205.929688 -20.34375 -204.265625 C -21.882812 -202.609375 -23.320312 -201 -24.65625 -199.4375 C -25.988281 -197.875 -26.722656 -196.945312 -26.859375 -196.65625 L -29.359375 -192.515625 C -30.484375 -190.691406 -31.382812 -189.179688 -32.0625 -187.984375 C -32.738281 -186.796875 -33.296875 -185.300781 -33.734375 -183.5 C -34.015625 -182.457031 -33.914062 -180.757812 -33.4375 -178.40625 C -32.96875 -176.0625 -32.351562 -174.226562 -31.59375 -172.90625 L -29.5625 -169.5625 C -27.96875 -166.726562 -26.453125 -164.675781 -25.015625 -163.40625 C -23.660156 -162.320312 -22.984375 -161.492188 -22.984375 -160.921875 C -22.984375 -160.347656 -23.640625 -160.257812 -24.953125 -160.65625 C -25.878906 -161.21875 -26.9375 -162.125 -28.125 -163.375 C -29.320312 -164.632812 -30.296875 -165.921875 -31.046875 -167.234375 C -31.765625 -169.023438 -32.320312 -169.84375 -32.71875 -169.6875 C -33 -169.800781 -33.5 -170.753906 -34.21875 -172.546875 C -34.9375 -174.347656 -35.539062 -176.300781 -36.03125 -178.40625 C -36.53125 -180.519531 -36.660156 -181.859375 -36.421875 -182.421875 C -36.191406 -182.984375 -36.113281 -183.941406 -36.1875 -185.296875 C -35.863281 -186.816406 -35.601562 -187.613281 -35.40625 -187.6875 C -34.757812 -188.40625 -34.195312 -189.328125 -33.71875 -190.453125 C -33.25 -191.554688 -32.5625 -192.863281 -31.65625 -194.375 C -30.757812 -195.882812 -30.210938 -196.679688 -30.015625 -196.765625 L -27.453125 -199.875 C -26.648438 -201.351562 -25.445312 -202.988281 -23.84375 -204.78125 C -22.25 -206.570312 -21.25 -207.546875 -20.84375 -207.703125 L -19.109375 -209.453125 C -16.085938 -212.273438 -14.273438 -213.804688 -13.671875 -214.046875 L -12.3125 -214.9375 L -9.5 -217.4375 L -3.9375 -221.765625 C -3.09375 -222.554688 -2.082031 -223.359375 -0.90625 -224.171875 C 0.269531 -224.984375 1.257812 -225.550781 2.0625 -225.875 C 3.5 -226.90625 4.632812 -227.820312 5.46875 -228.625 C 5.863281 -228.789062 6.957031 -229.519531 8.75 -230.8125 C 10.550781 -232.101562 12.628906 -233.566406 14.984375 -235.203125 L 24.609375 -241.484375 L 27.484375 -242.96875 L 33.890625 -246.921875 C 36.835938 -248.785156 38.816406 -250.035156 39.828125 -250.671875 C 40.847656 -251.316406 43.070312 -252.550781 46.5 -254.375 L 55.90625 -259.53125 L 94.78125 -280.25 C 95.707031 -280.84375 96.546875 -281.347656 97.296875 -281.765625 C 98.054688 -282.191406 98.488281 -282.539062 98.59375 -282.8125 C 99 -282.976562 99.628906 -283.285156 100.484375 -283.734375 C 101.347656 -284.191406 102.175781 -284.582031 102.96875 -284.90625 C 103.976562 -285.300781 105.226562 -285.796875 106.71875 -286.390625 C 108.21875 -286.992188 109.320312 -287.550781 110.03125 -288.0625 L 124.875 -296.078125 L 144.015625 -305.453125 C 145.609375 -306.085938 146.882812 -306.941406 147.84375 -308.015625 C 148.050781 -308.097656 148.132812 -308.1875 148.09375 -308.28125 C 148.0625 -308.382812 148.140625 -308.472656 148.328125 -308.546875 C 150.117188 -310.429688 151.613281 -311.613281 152.8125 -312.09375 L 154.359375 -313.390625 C 154.597656 -313.953125 155.398438 -314.269531 156.765625 -314.34375 C 158.597656 -315.550781 160.070312 -315.914062 161.1875 -315.4375 C 162.195312 -314.664062 161.757812 -313.445312 159.875 -311.78125 C 159.15625 -311.269531 158.066406 -310.085938 156.609375 -308.234375 C 155.160156 -306.378906 154.410156 -305.210938 154.359375 -304.734375 C 154.441406 -304.523438 154.304688 -304.007812 153.953125 -303.1875 L 153.515625 -301.609375 C 153.398438 -301.335938 153.234375 -301.039062 153.015625 -300.71875 C 152.796875 -300.394531 152.664062 -300 152.625 -299.53125 C 152.507812 -299.238281 152.507812 -298.945312 152.625 -298.65625 C 152.75 -298.363281 152.695312 -297.9375 152.46875 -297.375 L 151.90625 -296.125 L 151.671875 -294.984375 L 150.59375 -292.46875 C 150.113281 -291.351562 149.910156 -290.695312 149.984375 -290.5 C 149.984375 -290.5 149.703125 -289.75 149.140625 -288.25 C 148.585938 -286.757812 147.894531 -285.035156 147.0625 -283.078125 L 138.5 -261.984375 C 137.894531 -260.585938 137.351562 -259.328125 136.875 -258.203125 C 136.394531 -257.085938 136.195312 -256.429688 136.28125 -256.234375 C 136.351562 -256.035156 136.273438 -255.65625 136.046875 -255.09375 C 135.804688 -254.539062 135.125 -253.054688 134 -250.640625 C 132.882812 -248.234375 131.71875 -245.515625 130.5 -242.484375 C 129.28125 -239.453125 128.210938 -236.769531 127.296875 -234.4375 C 126.378906 -232.101562 125.960938 -230.835938 126.046875 -230.640625 L 124.171875 -225.734375 C 122.847656 -222.671875 122.226562 -221.039062 122.3125 -220.84375 C 122.3125 -220.84375 121.957031 -220.007812 121.25 -218.34375 C 121.125 -218.050781 121 -217.765625 120.875 -217.484375 C 120.757812 -217.210938 120.582031 -216.796875 120.34375 -216.234375 C 122.21875 -217.898438 123.832031 -219.9375 125.1875 -222.34375 L 127.59375 -226.75 L 134.234375 -237.03125 L 157.453125 -270.9375 C 158.648438 -272.570312 160.363281 -274.929688 162.59375 -278.015625 C 164.832031 -281.109375 166.054688 -282.695312 166.265625 -282.78125 L 168.46875 -285.03125 C 169.664062 -286.675781 171.707031 -288.941406 174.59375 -291.828125 C 177.476562 -294.722656 180.484375 -297.484375 183.609375 -300.109375 C 186.734375 -302.734375 189.046875 -304.460938 190.546875 -305.296875 L 193.015625 -306.984375 C 193.128906 -307.253906 194.203125 -308.03125 196.234375 -309.3125 C 198.035156 -310.03125 199.050781 -310.664062 199.28125 -311.21875 C 199.601562 -311.570312 201.078125 -312.21875 203.703125 -313.15625 C 206.335938 -314.09375 207.835938 -314.40625 208.203125 -314.09375 C 210.023438 -312.96875 209.039062 -308.175781 205.25 -299.71875 C 204.300781 -297.5 203.382812 -295.457031 202.5 -293.59375 C 201.625 -291.738281 200.988281 -290.734375 200.59375 -290.578125 C 200 -290.335938 199.738281 -290.117188 199.8125 -289.921875 C 199.84375 -289.242188 198.410156 -287.171875 195.515625 -283.703125 C 192.628906 -280.242188 189.867188 -277.175781 187.234375 -274.5 L 182.625 -269.546875 L 175.5 -262.1875 L 168.625 -255.96875 C 166.75 -254.289062 164.296875 -252.039062 161.265625 -249.21875 C 158.234375 -246.394531 153.90625 -242.476562 148.28125 -237.46875 C 146.601562 -235.851562 145.085938 -234.425781 143.734375 -233.1875 C 142.378906 -231.957031 141.582031 -231.066406 141.34375 -230.515625 C 140.582031 -229.523438 139.125 -228.253906 136.96875 -226.703125 L 129.125 -219.40625 C 126.5 -216.738281 124.882812 -215.285156 124.28125 -215.046875 C 123.882812 -214.890625 123.128906 -213.890625 122.015625 -212.046875 C 121.566406 -211.410156 121.273438 -210.832031 121.140625 -210.3125 C 121.003906 -209.800781 120.859375 -209.164062 120.703125 -208.40625 L 118.609375 -195.421875 C 118.003906 -192.867188 117.78125 -191.394531 117.9375 -191 L 118.109375 -187.9375 C 118.179688 -184.28125 118.316406 -180.46875 118.515625 -176.5 C 118.722656 -172.53125 118.84375 -170.207031 118.875 -169.53125 L 119.578125 -160.8125 L 120.0625 -149.203125 L 120.890625 -141.890625 L 121.953125 -130.53125 L 121.90625 -128.078125 L 122.796875 -123.234375 L 123.4375 -117.265625 C 123.757812 -114.148438 124.488281 -109.867188 125.625 -104.421875 C 126.757812 -98.984375 127.640625 -94.890625 128.265625 -92.140625 C 129.503906 -87.304688 131.316406 -81.609375 133.703125 -75.046875 C 136.097656 -68.492188 138.554688 -62.484375 141.078125 -57.015625 C 143.609375 -51.554688 145.648438 -47.753906 147.203125 -45.609375 C 147.921875 -44.960938 148.597656 -43.84375 149.234375 -42.25 C 151.222656 -38.414062 154.140625 -34.144531 157.984375 -29.4375 C 161.835938 -24.726562 165.21875 -21.34375 168.125 -19.28125 C 172.75 -15.800781 178.148438 -14.132812 184.328125 -14.28125 C 186.828125 -14.363281 189.5625 -14.304688 192.53125 -14.109375 C 195.507812 -13.910156 197.039062 -13.707031 197.125 -13.5 Z M 131.46875 -226.578125 C 131.664062 -226.648438 132.671875 -227.457031 134.484375 -229 C 136.304688 -230.539062 138.15625 -232.144531 140.03125 -233.8125 L 164.609375 -256.46875 C 166.890625 -258.289062 168.148438 -259.484375 168.390625 -260.046875 C 168.515625 -260.316406 168.914062 -260.765625 169.59375 -261.390625 C 170.269531 -262.015625 170.960938 -262.582031 171.671875 -263.09375 C 173.234375 -264.40625 175.566406 -266.664062 178.671875 -269.875 C 181.785156 -273.082031 184.988281 -276.5 188.28125 -280.125 C 191.570312 -283.757812 194.039062 -286.707031 195.6875 -288.96875 C 200.59375 -295.789062 203.769531 -301.453125 205.21875 -305.953125 C 205.488281 -308.140625 205.382812 -309.253906 204.90625 -309.296875 C 204.34375 -309.546875 203.09375 -309.335938 201.15625 -308.671875 C 199.226562 -308.015625 198.144531 -307.40625 197.90625 -306.84375 L 195.328125 -305.46875 C 193.109375 -304.125 190.476562 -302.328125 187.4375 -300.078125 C 184.40625 -297.828125 181.660156 -295.570312 179.203125 -293.3125 C 176.742188 -291.0625 175.023438 -289.164062 174.046875 -287.625 C 173.484375 -286.695312 172.800781 -286.078125 172 -285.765625 C 171.800781 -285.679688 171.0625 -284.925781 169.78125 -283.5 C 169.539062 -282.925781 169.160156 -282.421875 168.640625 -281.984375 C 168.117188 -281.546875 167.765625 -281.289062 167.578125 -281.21875 C 167.367188 -281.132812 167.078125 -280.84375 166.703125 -280.34375 C 166.328125 -279.84375 166.019531 -279.316406 165.78125 -278.765625 C 165.175781 -277.367188 164.351562 -276.234375 163.3125 -275.359375 C 162.125 -274.878906 161.648438 -274.34375 161.890625 -273.75 C 161.890625 -273.75 161.773438 -273.585938 161.546875 -273.265625 C 161.328125 -272.953125 161.0625 -272.613281 160.75 -272.25 L 153.4375 -261.015625 C 153.3125 -260.734375 153.082031 -260.289062 152.75 -259.6875 C 152.414062 -259.09375 152.128906 -258.519531 151.890625 -257.96875 C 151.328125 -257.039062 150.328125 -255.484375 148.890625 -253.296875 C 147.453125 -251.109375 146.632812 -249.976562 146.4375 -249.90625 C 146.238281 -249.820312 145.53125 -248.835938 144.3125 -246.953125 C 143.101562 -245.078125 141.753906 -243.09375 140.265625 -241 C 138.785156 -238.914062 137.769531 -237.421875 137.21875 -236.515625 C 136.5 -234.835938 135.835938 -233.878906 135.234375 -233.640625 C 135.046875 -233.554688 134.300781 -232.390625 133 -230.140625 C 131.707031 -227.890625 131.195312 -226.703125 131.46875 -226.578125 Z M 131.46875 -226.578125 "/></g></g></g><g fill="#ffffff" fill-opacity="1"><g transform="translate(308.789096, 414.853478)"><g><path d="M -35.59375 -80.46875 C -37.90625 -79.300781 -39.378906 -78.648438 -40.015625 -78.515625 C -40.660156 -78.378906 -41.28125 -78.765625 -41.875 -79.671875 C -42.664062 -80.515625 -42.859375 -82.171875 -42.453125 -84.640625 C -41.816406 -87.679688 -40.476562 -90.988281 -38.4375 -94.5625 C -36.40625 -98.144531 -34.097656 -101.035156 -31.515625 -103.234375 C -27.441406 -106.953125 -24.785156 -108.128906 -23.546875 -106.765625 C -23.035156 -106.046875 -24.4375 -103.175781 -27.75 -98.15625 C -29.625 -95.320312 -31.226562 -93.117188 -32.5625 -91.546875 C -33.894531 -89.972656 -35.285156 -88.671875 -36.734375 -87.640625 C -38.359375 -86.515625 -39.171875 -85.378906 -39.171875 -84.234375 C -39.660156 -83.117188 -39.5625 -82.578125 -38.875 -82.609375 C -36.84375 -82.734375 -28.828125 -89.863281 -14.828125 -104 L -14.359375 -104.5625 L -13.46875 -104.921875 L -13.03125 -104.71875 C -12.082031 -104.644531 -11.785156 -104.1875 -12.140625 -103.34375 L -15.3125 -99.984375 L -26.375 -88.65625 C -28.40625 -86.21875 -30.085938 -84.5 -31.421875 -83.5 C -32.765625 -82.507812 -34.15625 -81.5 -35.59375 -80.46875 Z M -37.140625 -91.28125 C -37.265625 -91.007812 -36.9375 -91.195312 -36.15625 -91.84375 C -35.375 -92.5 -34.347656 -93.546875 -33.078125 -94.984375 C -31.992188 -96.347656 -30.820312 -97.910156 -29.5625 -99.671875 C -28.3125 -101.441406 -27.625 -102.472656 -27.5 -102.765625 C -27.65625 -103.160156 -28.179688 -102.890625 -29.078125 -101.953125 C -29.984375 -101.015625 -30.859375 -100.148438 -31.703125 -99.359375 C -32.609375 -98.765625 -33.734375 -97.382812 -35.078125 -95.21875 C -36.421875 -93.0625 -37.109375 -91.75 -37.140625 -91.28125 Z M -37.140625 -91.28125 "/></g></g></g><g fill="#ffffff" fill-opacity="1"><g transform="translate(332.716133, 405.300078)"><g><path d="M -38.234375 -62.765625 C -38.753906 -62.328125 -39.398438 -62.066406 -40.171875 -61.984375 C -40.941406 -61.898438 -41.410156 -62.0625 -41.578125 -62.46875 C -41.578125 -62.46875 -41.753906 -62.625 -42.109375 -62.9375 C -42.472656 -63.257812 -42.898438 -63.441406 -43.390625 -63.484375 C -44.222656 -63.835938 -44.957031 -64.8125 -45.59375 -66.40625 C -46.269531 -68.675781 -45.050781 -71.707031 -41.9375 -75.5 L -39.59375 -79.203125 C -39.394531 -79.285156 -39.140625 -79.503906 -38.828125 -79.859375 C -38.515625 -80.210938 -38.09375 -80.613281 -37.5625 -81.0625 C -36.289062 -82.5 -35.59375 -83.359375 -35.46875 -83.640625 C -35.632812 -84.035156 -35.863281 -84.75 -36.15625 -85.78125 C -36.457031 -86.820312 -36.882812 -88.039062 -37.4375 -89.4375 C -38.5625 -92.226562 -39.171875 -94.179688 -39.265625 -95.296875 C -39.359375 -96.410156 -38.863281 -97.640625 -37.78125 -98.984375 C -36.195312 -100.785156 -34.984375 -101.507812 -34.140625 -101.15625 C -32.304688 -100.039062 -32.367188 -98.742188 -34.328125 -97.265625 C -35.035156 -96.742188 -35.363281 -96.265625 -35.3125 -95.828125 C -35.257812 -95.390625 -35.03125 -94.097656 -34.625 -91.953125 C -34.03125 -89.867188 -33.410156 -88.609375 -32.765625 -88.171875 C -32.128906 -87.734375 -31.394531 -87.910156 -30.5625 -88.703125 C -29.6875 -89.984375 -27.898438 -91.738281 -25.203125 -93.96875 C -22.515625 -96.207031 -19.734375 -98.359375 -16.859375 -100.421875 C -13.984375 -102.492188 -11.992188 -103.867188 -10.890625 -104.546875 C -9.535156 -105.773438 -8.535156 -106.175781 -7.890625 -105.75 C -6.765625 -105.257812 -7.179688 -104.28125 -9.140625 -102.8125 C -11.421875 -100.976562 -13.847656 -99.082031 -16.421875 -97.125 C -18.992188 -95.175781 -19.757812 -94.640625 -18.71875 -95.515625 C -20.476562 -94.128906 -22.132812 -92.773438 -23.6875 -91.453125 C -25.238281 -90.140625 -26.492188 -88.941406 -27.453125 -87.859375 L -29.984375 -85.484375 C -30.734375 -84.472656 -30.925781 -83.238281 -30.5625 -81.78125 C -30.25 -79.8125 -30.226562 -78.316406 -30.5 -77.296875 C -30.550781 -75.660156 -31.441406 -73.101562 -33.171875 -69.625 C -34.910156 -66.15625 -36.597656 -63.867188 -38.234375 -62.765625 Z M -39.546875 -66.046875 C -38.753906 -66.359375 -37.757812 -67.910156 -36.5625 -70.703125 C -35.59375 -72.941406 -35.019531 -74.554688 -34.84375 -75.546875 C -34.664062 -76.546875 -34.632812 -77.488281 -34.75 -78.375 L -35.34375 -79.875 L -36.96875 -77.828125 L -39.25 -74.828125 C -39.363281 -74.554688 -40.097656 -73.507812 -41.453125 -71.6875 C -42.804688 -69.875 -43.285156 -68.46875 -42.890625 -67.46875 C -42.253906 -65.875 -41.140625 -65.398438 -39.546875 -66.046875 Z M -39.546875 -66.046875 "/></g></g></g><g fill="#ffffff" fill-opacity="1"><g transform="translate(361.727664, 393.716581)"><g><path d="M -28.515625 -107.90625 C -29.035156 -107.46875 -29.710938 -107.425781 -30.546875 -107.78125 C -31.390625 -108.144531 -31.648438 -108.503906 -31.328125 -108.859375 C -31.078125 -109.421875 -31.113281 -110.101562 -31.4375 -110.90625 C -31.832031 -113.050781 -31.140625 -113.90625 -29.359375 -113.46875 C -28.515625 -113.113281 -28.015625 -112.738281 -27.859375 -112.34375 C -27.421875 -111.8125 -27.289062 -111.046875 -27.46875 -110.046875 C -27.644531 -109.054688 -27.992188 -108.34375 -28.515625 -107.90625 Z M -36.96875 -79.546875 C -39.875 -78.171875 -41.6875 -78.378906 -42.40625 -80.171875 L -42.765625 -81.0625 C -43.796875 -83.65625 -42.597656 -88.1875 -39.171875 -94.65625 C -37.285156 -97.46875 -35.867188 -98.832031 -34.921875 -98.75 C -33.285156 -98.71875 -33.601562 -96.625 -35.875 -92.46875 L -39.296875 -86.265625 C -39.703125 -84.941406 -39.625 -83.585938 -39.0625 -82.203125 C -38.382812 -82.234375 -37.632812 -82.523438 -36.8125 -83.078125 C -36 -83.640625 -35.59375 -83.921875 -35.59375 -83.921875 C -33.550781 -85.191406 -30.695312 -87.601562 -27.03125 -91.15625 C -23.363281 -94.707031 -18.800781 -99.191406 -13.34375 -104.609375 L -12.859375 -105.15625 L -12.25 -105.390625 L -11.53125 -105.328125 C -10.382812 -105.328125 -10.25 -104.6875 -11.125 -103.40625 L -14.109375 -100.46875 L -24.890625 -89.25 C -26.878906 -87.289062 -29.007812 -85.394531 -31.28125 -83.5625 C -33.5625 -81.738281 -35.457031 -80.398438 -36.96875 -79.546875 Z M -36.96875 -79.546875 "/></g></g></g><g fill="#ffffff" fill-opacity="1"><g transform="translate(386.851083, 383.685499)"><g><path d="M -21.546875 -73.9375 C -21.859375 -73.582031 -22.375 -73.429688 -23.09375 -73.484375 C -23.8125 -73.546875 -24.429688 -73.929688 -24.953125 -74.640625 C -25.109375 -75.046875 -24.828125 -76.660156 -24.109375 -79.484375 C -23.390625 -82.316406 -22.410156 -85.65625 -21.171875 -89.5 C -19.929688 -93.351562 -18.757812 -96.941406 -17.65625 -100.265625 C -16.5625 -103.597656 -15.71875 -105.957031 -15.125 -107.34375 C -14.5625 -108.269531 -14.148438 -109.128906 -13.890625 -109.921875 C -13.640625 -110.722656 -13.515625 -111.125 -13.515625 -111.125 C -13.703125 -111.050781 -14.144531 -110.582031 -14.84375 -109.71875 C -15.550781 -108.863281 -16.441406 -107.753906 -17.515625 -106.390625 L -25.1875 -96.046875 L -27.265625 -93.5 L -29.65625 -90.796875 C -30.300781 -90.085938 -30.789062 -89.429688 -31.125 -88.828125 C -31.46875 -88.222656 -31.734375 -87.882812 -31.921875 -87.8125 L -32.890625 -86.734375 C -33.785156 -85.460938 -35.023438 -83.925781 -36.609375 -82.125 C -38.203125 -80.332031 -39.71875 -78.914062 -41.15625 -77.875 C -42.519531 -76.65625 -43.554688 -76.363281 -44.265625 -77 C -44.984375 -77.644531 -45.125 -78.863281 -44.6875 -80.65625 C -44.195312 -82.914062 -43.023438 -85.914062 -41.171875 -89.65625 C -39.328125 -93.40625 -37.597656 -96.179688 -35.984375 -97.984375 C -31.679688 -103.398438 -28.015625 -105.207031 -24.984375 -103.40625 L -23.734375 -102.875 L -22.125 -104.921875 L -18.515625 -109.8125 C -17.890625 -110.519531 -17.085938 -111.535156 -16.109375 -112.859375 C -15.128906 -114.179688 -14.066406 -115.414062 -12.921875 -116.5625 C -8.765625 -121.226562 -5.910156 -125.375 -4.359375 -129 L 2.546875 -145.609375 L 4.34375 -149.796875 C 5.851562 -152.953125 6.910156 -155.226562 7.515625 -156.625 C 8.117188 -158.019531 8.921875 -160.070312 9.921875 -162.78125 C 11.148438 -166.050781 12.472656 -169.238281 13.890625 -172.34375 C 15.316406 -175.457031 16.5625 -177.691406 17.625 -179.046875 L 21.171875 -184.96875 C 21.640625 -186.082031 22.265625 -187.253906 23.046875 -188.484375 C 23.828125 -189.722656 24.441406 -190.660156 24.890625 -191.296875 C 27.347656 -194.367188 29 -195.148438 29.84375 -193.640625 C 30.363281 -192.910156 30.1875 -190.753906 29.3125 -187.171875 C 28.1875 -183.023438 26.1875 -177.601562 23.3125 -170.90625 C 22.550781 -168.75 21.0625 -165.671875 18.84375 -161.671875 C 16.632812 -157.671875 14.875 -154.707031 13.5625 -152.78125 L 10.484375 -147.40625 C 10.015625 -146.289062 9.0625 -144.632812 7.625 -142.4375 C 6.1875 -140.25 5.09375 -138.660156 4.34375 -137.671875 L 1.15625 -132.578125 L -1.71875 -127.609375 L -5.0625 -120.390625 C -6.863281 -117.359375 -8.890625 -112.734375 -11.140625 -106.515625 C -13.398438 -100.296875 -15.488281 -93.800781 -17.40625 -87.03125 Z M 5.953125 -143.15625 L 9.5 -149.078125 L 12.71875 -154.875 C 13.40625 -156.082031 14.28125 -157.648438 15.34375 -159.578125 C 16.414062 -161.515625 17.421875 -163.351562 18.359375 -165.09375 C 20.578125 -169.925781 22.132812 -173.390625 23.03125 -175.484375 C 23.9375 -177.578125 24.726562 -179.800781 25.40625 -182.15625 C 26.488281 -185.8125 26.71875 -187.398438 26.09375 -186.921875 C 25.476562 -186.453125 23.773438 -183.925781 20.984375 -179.34375 L 18.40625 -174.5 L 16.96875 -171.140625 C 15.132812 -167.640625 13.796875 -164.332031 12.953125 -161.21875 L 10.625 -155.78125 C 8.664062 -151.988281 7.21875 -148.804688 6.28125 -146.234375 C 5.34375 -143.671875 5.234375 -142.644531 5.953125 -143.15625 Z M -39.96875 -83.578125 C -39.769531 -83.648438 -39.320312 -84.113281 -38.625 -84.96875 C -37.925781 -85.832031 -37.191406 -86.765625 -36.421875 -87.765625 C -34.191406 -90.265625 -32.878906 -91.597656 -32.484375 -91.765625 C -32.359375 -92.035156 -32.101562 -92.421875 -31.71875 -92.921875 C -31.34375 -93.421875 -30.835938 -94.023438 -30.203125 -94.734375 C -29.242188 -95.816406 -28.570312 -96.894531 -28.1875 -97.96875 C -27.8125 -99.039062 -27.863281 -99.601562 -28.34375 -99.65625 C -29.5 -99.65625 -30.695312 -99.179688 -31.9375 -98.234375 L -34.328125 -95.53125 C -35.492188 -94.363281 -36.191406 -93.503906 -36.421875 -92.953125 L -37.984375 -89.90625 C -38.898438 -88.15625 -39.554688 -86.617188 -39.953125 -85.296875 C -40.359375 -83.984375 -40.363281 -83.410156 -39.96875 -83.578125 Z M -39.96875 -83.578125 "/></g></g></g><g fill="#ffffff" fill-opacity="1"><g transform="translate(434.406105, 364.698101)"><g><path d="M -35.59375 -80.46875 C -37.90625 -79.300781 -39.378906 -78.648438 -40.015625 -78.515625 C -40.660156 -78.378906 -41.28125 -78.765625 -41.875 -79.671875 C -42.664062 -80.515625 -42.859375 -82.171875 -42.453125 -84.640625 C -41.816406 -87.679688 -40.476562 -90.988281 -38.4375 -94.5625 C -36.40625 -98.144531 -34.097656 -101.035156 -31.515625 -103.234375 C -27.441406 -106.953125 -24.785156 -108.128906 -23.546875 -106.765625 C -23.035156 -106.046875 -24.4375 -103.175781 -27.75 -98.15625 C -29.625 -95.320312 -31.226562 -93.117188 -32.5625 -91.546875 C -33.894531 -89.972656 -35.285156 -88.671875 -36.734375 -87.640625 C -38.359375 -86.515625 -39.171875 -85.378906 -39.171875 -84.234375 C -39.660156 -83.117188 -39.5625 -82.578125 -38.875 -82.609375 C -36.84375 -82.734375 -28.828125 -89.863281 -14.828125 -104 L -14.359375 -104.5625 L -13.46875 -104.921875 L -13.03125 -104.71875 C -12.082031 -104.644531 -11.785156 -104.1875 -12.140625 -103.34375 L -15.3125 -99.984375 L -26.375 -88.65625 C -28.40625 -86.21875 -30.085938 -84.5 -31.421875 -83.5 C -32.765625 -82.507812 -34.15625 -81.5 -35.59375 -80.46875 Z M -37.140625 -91.28125 C -37.265625 -91.007812 -36.9375 -91.195312 -36.15625 -91.84375 C -35.375 -92.5 -34.347656 -93.546875 -33.078125 -94.984375 C -31.992188 -96.347656 -30.820312 -97.910156 -29.5625 -99.671875 C -28.3125 -101.441406 -27.625 -102.472656 -27.5 -102.765625 C -27.65625 -103.160156 -28.179688 -102.890625 -29.078125 -101.953125 C -29.984375 -101.015625 -30.859375 -100.148438 -31.703125 -99.359375 C -32.609375 -98.765625 -33.734375 -97.382812 -35.078125 -95.21875 C -36.421875 -93.0625 -37.109375 -91.75 -37.140625 -91.28125 Z M -37.140625 -91.28125 "/></g></g></g><g fill="#ffffff" fill-opacity="1"><g transform="translate(458.333143, 355.144701)"><g><path d="M -14.359375 -87.203125 C -17.785156 -85.367188 -20.578125 -84.832031 -22.734375 -85.59375 C -23.492188 -85.75 -24.25 -86.484375 -25 -87.796875 C -25.757812 -89.117188 -26.097656 -90.253906 -26.015625 -91.203125 L -25.765625 -92.359375 L -25.890625 -92.65625 L -25.765625 -94.09375 L -26.0625 -93.96875 C -27.144531 -92.613281 -29.101562 -90.269531 -31.9375 -86.9375 C -34.769531 -83.613281 -36.6875 -81.175781 -37.6875 -79.625 C -38.925781 -78.664062 -39.546875 -78.1875 -39.546875 -78.1875 C -40.140625 -77.945312 -40.6875 -78.015625 -41.1875 -78.390625 C -41.6875 -78.773438 -41.914062 -79.203125 -41.875 -79.671875 L -42.234375 -80.578125 C -41.148438 -83.085938 -40.585938 -85.738281 -40.546875 -88.53125 L -39.53125 -92.0625 C -38.757812 -95.375 -37.503906 -96.566406 -35.765625 -95.640625 C -34.847656 -95.085938 -34.445312 -94.09375 -34.5625 -92.65625 L -35.34375 -88.53125 L -27.4375 -96.546875 C -27.007812 -97.171875 -26.503906 -97.773438 -25.921875 -98.359375 C -25.347656 -98.941406 -25 -99.375 -24.875 -99.65625 C -23.3125 -102.125 -22.113281 -102.597656 -21.28125 -101.078125 C -20.445312 -99.554688 -20.347656 -97.863281 -20.984375 -96 C -22.191406 -93.207031 -22.351562 -91.289062 -21.46875 -90.25 C -20.113281 -86.863281 -13.132812 -90.226562 -0.53125 -100.34375 C 0.90625 -101.394531 2.75 -103.003906 5 -105.171875 C 7.25 -107.335938 9.316406 -109.257812 11.203125 -110.9375 C 13.828125 -113.601562 15.707031 -115.394531 16.84375 -116.3125 C 17.976562 -117.238281 18.6875 -117.632812 18.96875 -117.5 C 20.113281 -117.5 20.46875 -117.179688 20.03125 -116.546875 C 19.601562 -115.910156 18.710938 -114.96875 17.359375 -113.71875 C 16.316406 -112.84375 15.585938 -112.207031 15.171875 -111.8125 C 14.753906 -111.414062 14.066406 -110.679688 13.109375 -109.609375 L 11.6875 -108 L 8.984375 -105.1875 L 5.5 -101.71875 C 5.5 -101.71875 3.816406 -100.296875 0.453125 -97.453125 C -2.910156 -94.609375 -5.875 -92.328125 -8.4375 -90.609375 Z M -14.359375 -87.203125 "/></g></g></g><g fill="#ffffff" fill-opacity="1"><g transform="translate(514.561719, 332.694195)"><g><path d="M -25.4375 -77.578125 C -27.539062 -76.503906 -29.128906 -75.867188 -30.203125 -75.671875 C -31.285156 -75.472656 -32.46875 -75.234375 -33.75 -74.953125 C -35.894531 -74.546875 -37.734375 -74.960938 -39.265625 -76.203125 C -40.804688 -77.453125 -41.851562 -78.773438 -42.40625 -80.171875 C -43.039062 -81.765625 -43.21875 -83.367188 -42.9375 -84.984375 C -42.65625 -86.597656 -42.097656 -88.375 -41.265625 -90.3125 C -39.597656 -94.226562 -37.566406 -97.53125 -35.171875 -100.21875 C -32.773438 -102.914062 -30.613281 -104.757812 -28.6875 -105.75 C -28.175781 -106.1875 -27.472656 -106.296875 -26.578125 -106.078125 C -25.679688 -105.859375 -25.148438 -105.550781 -24.984375 -105.15625 C -24.546875 -104.625 -24.71875 -103.160156 -25.5 -100.765625 C -26.28125 -98.378906 -26.925781 -96.972656 -27.4375 -96.546875 C -28.039062 -96.304688 -28.382812 -96.285156 -28.46875 -96.484375 L -29.125 -97.265625 C -29.40625 -97.390625 -29.320312 -98.347656 -28.875 -100.140625 L -27.96875 -102.21875 L -29.171875 -101.734375 C -30.492188 -100.992188 -32.125 -99.132812 -34.0625 -96.15625 C -36 -93.1875 -37.523438 -90.207031 -38.640625 -87.21875 L -39.234375 -85.234375 C -39.640625 -83.929688 -39.550781 -82.695312 -38.96875 -81.53125 C -38.394531 -80.375 -37.925781 -79.632812 -37.5625 -79.3125 C -36.84375 -78.675781 -35.863281 -78.257812 -34.625 -78.0625 C -33.394531 -77.863281 -31.484375 -78.28125 -28.890625 -79.3125 C -22.078125 -82.507812 -16.09375 -86.054688 -10.9375 -89.953125 C -5.789062 -93.859375 -0.828125 -97.921875 3.953125 -102.140625 C 3.953125 -102.140625 4.769531 -102.988281 6.40625 -104.6875 C 8.039062 -106.382812 9.953125 -108.242188 12.140625 -110.265625 C 14.335938 -112.296875 16.25 -114.160156 17.875 -115.859375 C 19.507812 -117.554688 20.328125 -118.40625 20.328125 -118.40625 C 20.859375 -118.832031 21.582031 -119.054688 22.5 -119.078125 C 23.414062 -119.097656 22.972656 -118.171875 21.171875 -116.296875 L 20.53125 -115.359375 C 17.78125 -112.398438 15.664062 -110.160156 14.1875 -108.640625 C 12.707031 -107.128906 11.269531 -105.804688 9.875 -104.671875 C 8.476562 -103.546875 6.722656 -101.867188 4.609375 -99.640625 C -0.335938 -94.660156 -5.625 -90.234375 -11.25 -86.359375 C -16.875 -82.492188 -21.601562 -79.566406 -25.4375 -77.578125 Z M -25.4375 -77.578125 "/></g></g></g><g fill="#ffffff" fill-opacity="1"><g transform="translate(572.883879, 309.407779)"><g><path d="M -35.59375 -80.46875 C -37.90625 -79.300781 -39.378906 -78.648438 -40.015625 -78.515625 C -40.660156 -78.378906 -41.28125 -78.765625 -41.875 -79.671875 C -42.664062 -80.515625 -42.859375 -82.171875 -42.453125 -84.640625 C -41.816406 -87.679688 -40.476562 -90.988281 -38.4375 -94.5625 C -36.40625 -98.144531 -34.097656 -101.035156 -31.515625 -103.234375 C -27.441406 -106.953125 -24.785156 -108.128906 -23.546875 -106.765625 C -23.035156 -106.046875 -24.4375 -103.175781 -27.75 -98.15625 C -29.625 -95.320312 -31.226562 -93.117188 -32.5625 -91.546875 C -33.894531 -89.972656 -35.285156 -88.671875 -36.734375 -87.640625 C -38.359375 -86.515625 -39.171875 -85.378906 -39.171875 -84.234375 C -39.660156 -83.117188 -39.5625 -82.578125 -38.875 -82.609375 C -36.84375 -82.734375 -28.828125 -89.863281 -14.828125 -104 L -14.359375 -104.5625 L -13.46875 -104.921875 L -13.03125 -104.71875 C -12.082031 -104.644531 -11.785156 -104.1875 -12.140625 -103.34375 L -15.3125 -99.984375 L -26.375 -88.65625 C -28.40625 -86.21875 -30.085938 -84.5 -31.421875 -83.5 C -32.765625 -82.507812 -34.15625 -81.5 -35.59375 -80.46875 Z M -37.140625 -91.28125 C -37.265625 -91.007812 -36.9375 -91.195312 -36.15625 -91.84375 C -35.375 -92.5 -34.347656 -93.546875 -33.078125 -94.984375 C -31.992188 -96.347656 -30.820312 -97.910156 -29.5625 -99.671875 C -28.3125 -101.441406 -27.625 -102.472656 -27.5 -102.765625 C -27.65625 -103.160156 -28.179688 -102.890625 -29.078125 -101.953125 C -29.984375 -101.015625 -30.859375 -100.148438 -31.703125 -99.359375 C -32.609375 -98.765625 -33.734375 -97.382812 -35.078125 -95.21875 C -36.421875 -93.0625 -37.109375 -91.75 -37.140625 -91.28125 Z M -37.140625 -91.28125 "/></g></g></g></g></g></svg>